# xmcd
#
# Track frame offsets: 
#        180
#        21385
#        44758
#        66056
#
# Disc length: 1191 seconds
#
# Revision: 0
# Processed by: cddbd v1.4PL0 Copyright (c) Steve Scherf et al.
# Submitted via: ExactAudioCopy v0.95a3
#
DISCID=3504a504
DTITLE=Tony Liggins - Last Night I Saw A Reindeer
DYEAR=1997
DGENRE=R&B
TTITLE0=Last Night I Saw A Reindeer
TTITLE1=Merry Christmas (It's GoodTo Be Home)
TTITLE2=Last Night I Saw A Reindeer (Instrumental)
TTITLE3=Merry Christmas (It's Good To Be Home) (Instrumental)
EXTD=
EXTT0=
EXTT1=
EXTT2=
EXTT3=
PLAYORDER=
